<svg width="155" height="21" viewBox="0 0 155 21" fill="none" xmlns="http://www.w3.org/2000/svg">
<g clip-path="url(#clip0_5_809)">
<path d="M108.238 20.2183H144.218C145.524 20.2183 146.818 19.961 148.025 19.461C149.232 18.961 150.329 18.2281 151.253 17.3042C152.177 16.3804 152.91 15.2836 153.41 14.0765C153.91 12.8693 154.167 11.5756 154.167 10.269C154.169 8.96103 153.914 7.66544 153.415 6.45638C152.916 5.24732 152.183 4.14852 151.259 3.22285C150.335 2.29718 149.237 1.56281 148.029 1.06176C146.821 0.560699 145.526 0.302794 144.218 0.302795L108.238 0.302795C106.93 0.302794 105.635 0.560699 104.427 1.06176C103.219 1.56281 102.121 2.29718 101.197 3.22285C100.273 4.14852 99.5404 5.24732 99.0414 6.45638C98.5423 7.66544 98.2866 8.96103 98.2888 10.269C98.2888 12.9077 99.3371 15.4384 101.203 17.3042C103.069 19.1701 105.599 20.2183 108.238 20.2183ZM5.90148 20.2465H10.2934V4.19919H15.9803V0.302795H0.214539V4.18793H5.90148V20.2465ZM21.7235 20.2465H26.1154V4.94807H26.1717L31.2112 20.2352H34.5895L39.7979 4.94807H39.8542V20.2352H44.2461V0.302795H37.6301L33.013 13.3096H32.9567L28.3677 0.302795H21.7235V20.2465ZM50.406 0.370363H56.9938C58.5276 0.37272 60.0553 0.561799 61.5434 0.933426C62.8985 1.25491 64.1755 1.84458 65.299 2.66766C66.3856 3.48471 67.2604 4.55059 67.8497 5.77577C68.5159 7.23137 68.8376 8.82093 68.79 10.421C68.8205 11.8951 68.5082 13.3562 67.8778 14.6891C67.2908 15.8885 66.4492 16.9453 65.4116 17.7859C64.3496 18.6374 63.1366 19.2812 61.8362 19.6834C60.4616 20.1199 59.0272 20.3384 57.585 20.3309H50.406V0.370363ZM54.7979 16.2487H57.0501C57.9974 16.2552 58.9422 16.1513 59.8654 15.9391C60.6892 15.7719 61.4683 15.4322 62.1515 14.9424C62.8035 14.449 63.3222 13.8007 63.6605 13.0562C64.0558 12.1556 64.2481 11.179 64.2235 10.1958C64.2403 9.31482 64.0473 8.44248 63.6605 7.65077C63.3093 6.94916 62.8029 6.33681 62.1796 5.86023C61.5319 5.37918 60.8008 5.02219 60.0231 4.8073C59.1654 4.56747 58.2785 4.44809 57.388 4.45257H54.7979V16.2487ZM75.1526 0.370363H82.585C83.4573 0.370788 84.3285 0.43288 85.192 0.556174C86.0112 0.662289 86.8056 0.909969 87.54 1.28816C88.226 1.64409 88.8079 2.17176 89.2292 2.81969C89.6964 3.61034 89.9215 4.52064 89.8767 5.43793C89.9153 6.45938 89.5811 7.46001 88.9364 8.25325C88.2784 9.01538 87.411 9.5675 86.442 9.84108V9.87487C87.0655 9.96389 87.6703 10.1541 88.2326 10.4379C88.7517 10.6987 89.2192 11.0516 89.6121 11.4796C90.0012 11.9082 90.3016 12.4096 90.4961 12.9548C90.7058 13.5322 90.8106 14.1424 90.8057 14.7566C90.8395 15.6818 90.6049 16.597 90.1301 17.3918C89.6884 18.0836 89.0905 18.6621 88.3846 19.0809C87.6425 19.5264 86.8291 19.8407 85.9803 20.01C85.105 20.1977 84.2122 20.292 83.317 20.2915H75.1526V0.370363ZM79.5445 8.3377H82.7258C83.0631 8.33954 83.3995 8.30175 83.7281 8.22509C84.0422 8.15687 84.3416 8.03292 84.6121 7.8591C84.8759 7.68894 85.0943 7.45702 85.2483 7.18343C85.4133 6.87165 85.4948 6.5225 85.4848 6.16991C85.5029 5.81156 85.4168 5.45564 85.2371 5.14514C85.0623 4.87907 84.8244 4.66046 84.5445 4.50888C84.2307 4.35134 83.8946 4.24309 83.5479 4.18793C83.2046 4.12155 82.8558 4.08762 82.5062 4.08658H79.522L79.5445 8.3377ZM79.5445 16.5866H83.4859C83.8325 16.5875 84.1781 16.5497 84.5163 16.474C84.8525 16.4052 85.1719 16.2713 85.4566 16.0798C85.7407 15.8923 85.9777 15.6418 86.1492 15.3478C86.3342 15.0122 86.4256 14.633 86.4139 14.2499C86.4288 13.8457 86.3057 13.4485 86.0648 13.1237C85.8283 12.8315 85.5225 12.6031 85.1751 12.4593C84.8143 12.309 84.4359 12.205 84.049 12.1496C83.6666 12.0953 83.2809 12.0671 82.8947 12.0652H79.5726L79.5445 16.5866Z" fill="url(#paint0_linear_5_809)"/>
</g>
<defs>
<linearGradient id="paint0_linear_5_809" x1="0.214539" y1="10.3028" x2="154.167" y2="10.3028" gradientUnits="userSpaceOnUse">
<stop stop-color="#90CEA1"/>
<stop offset="0.56" stop-color="#3CBEC9"/>
<stop offset="1" stop-color="#00B3E5"/>
</linearGradient>
<clipPath id="clip0_5_809">
<rect width="153.953" height="20" fill="white" transform="translate(0.214539 0.302795)"/>
</clipPath>
</defs>
</svg>
